solid OpenSCAD_Model
  facet normal -0.309018 -0.951056 0
    outer loop
      vertex -0.258885 -0.188091 0
      vertex 0.0988846 -0.304338 9.27
      vertex -0.258885 -0.188091 9.27
    endloop
  endfacet
  facet normal -0.309018 -0.951056 -0
    outer loop
      vertex 0.0988846 -0.304338 9.27
      vertex -0.258885 -0.188091 0
      vertex 0.0988846 -0.304338 0
    endloop
  endfacet
  facet normal -0.309018 0.951056 0
    outer loop
      vertex 0.0988846 0.304338 0
      vertex -0.258885 0.188091 9.27
      vertex 0.0988846 0.304338 9.27
    endloop
  endfacet
  facet normal -0.309018 0.951056 0
    outer loop
      vertex -0.258885 0.188091 9.27
      vertex 0.0988846 0.304338 0
      vertex -0.258885 0.188091 0
    endloop
  endfacet
  facet normal 0.809016 0.587787 0
    outer loop
      vertex 0.32 0 9.27
      vertex 0.0988846 0.304338 0
      vertex 0.0988846 0.304338 9.27
    endloop
  endfacet
  facet normal 0.809016 0.587787 0
    outer loop
      vertex 0.0988846 0.304338 0
      vertex 0.32 0 9.27
      vertex 0.32 0 0
    endloop
  endfacet
  facet normal -1 0 0
    outer loop
      vertex -0.258885 -0.188091 0
      vertex -0.258885 0.188091 9.27
      vertex -0.258885 0.188091 0
    endloop
  endfacet
  facet normal -1 -0 0
    outer loop
      vertex -0.258885 0.188091 9.27
      vertex -0.258885 -0.188091 0
      vertex -0.258885 -0.188091 9.27
    endloop
  endfacet
  facet normal 0.809016 -0.587787 0
    outer loop
      vertex 0.0988846 -0.304338 9.27
      vertex 0.32 0 0
      vertex 0.32 0 9.27
    endloop
  endfacet
  facet normal 0.809016 -0.587787 0
    outer loop
      vertex 0.32 0 0
      vertex 0.0988846 -0.304338 9.27
      vertex 0.0988846 -0.304338 0
    endloop
  endfacet
  facet normal 0 0 -1
    outer loop
      vertex 0.0988846 -0.304338 0
      vertex 0.0988846 0.304338 0
      vertex 0.32 0 0
    endloop
  endfacet
  facet normal 0 0 -1
    outer loop
      vertex -0.258885 -0.188091 0
      vertex 0.0988846 0.304338 0
      vertex 0.0988846 -0.304338 0
    endloop
  endfacet
  facet normal 0 0 -1
    outer loop
      vertex 0.0988846 0.304338 0
      vertex -0.258885 -0.188091 0
      vertex -0.258885 0.188091 0
    endloop
  endfacet
  facet normal 0 0 1
    outer loop
      vertex 0.0988846 0.304338 9.27
      vertex 0.0988846 -0.304338 9.27
      vertex 0.32 0 9.27
    endloop
  endfacet
  facet normal -0 0 1
    outer loop
      vertex -0.258885 0.188091 9.27
      vertex 0.0988846 -0.304338 9.27
      vertex 0.0988846 0.304338 9.27
    endloop
  endfacet
  facet normal 0 0 1
    outer loop
      vertex 0.0988846 -0.304338 9.27
      vertex -0.258885 0.188091 9.27
      vertex -0.258885 -0.188091 9.27
    endloop
  endfacet
endsolid OpenSCAD_Model
