solid OpenSCAD_Model
  facet normal -0.279982 -0.861693 -0.423197
    outer loop
      vertex 0.0988846 -0.304338 0.32
      vertex -0.258885 -0.188091 0.32
      vertex -0.129442 -0.0940456 0.0428715
    endloop
  endfacet
  facet normal 0.732996 -0.532559 -0.423199
    outer loop
      vertex 0.0988846 -0.304338 0.32
      vertex 0.0494423 -0.152168 0.0428715
      vertex 0.16 0 0.0428715
    endloop
  endfacet
  facet normal -0.906037 0 -0.423198
    outer loop
      vertex -0.129442 -0.0940456 0.0428715
      vertex -0.258885 0.188091 0.32
      vertex -0.129442 0.0940456 0.0428715
    endloop
  endfacet
  facet normal -0.906037 -0 -0.423198
    outer loop
      vertex -0.258885 0.188091 0.32
      vertex -0.129442 -0.0940456 0.0428715
      vertex -0.258885 -0.188091 0.32
    endloop
  endfacet
  facet normal 0.732999 0.532557 -0.423197
    outer loop
      vertex 0.16 0 0.0428715
      vertex 0.0988846 0.304338 0.32
      vertex 0.32 0 0.32
    endloop
  endfacet
  facet normal 0.732999 -0.532557 -0.423197
    outer loop
      vertex 0.32 0 0.32
      vertex 0.0988846 -0.304338 0.32
      vertex 0.16 0 0.0428715
    endloop
  endfacet
  facet normal -0.279982 0.861693 -0.423197
    outer loop
      vertex -0.129442 0.0940456 0.0428715
      vertex -0.258885 0.188091 0.32
      vertex 0.0988846 0.304338 0.32
    endloop
  endfacet
  facet normal -0.279978 -0.861692 -0.423201
    outer loop
      vertex 0.0988846 -0.304338 0.32
      vertex -0.129442 -0.0940456 0.0428715
      vertex 0.0494423 -0.152168 0.0428715
    endloop
  endfacet
  facet normal 0 0 -1
    outer loop
      vertex 0.0494423 -0.152168 0.0428715
      vertex 0.0494423 0.152168 0.0428715
      vertex 0.16 0 0.0428715
    endloop
  endfacet
  facet normal 0 0 -1
    outer loop
      vertex -0.129442 -0.0940456 0.0428715
      vertex 0.0494423 0.152168 0.0428715
      vertex 0.0494423 -0.152168 0.0428715
    endloop
  endfacet
  facet normal 0 0 -1
    outer loop
      vertex 0.0494423 0.152168 0.0428715
      vertex -0.129442 -0.0940456 0.0428715
      vertex -0.129442 0.0940456 0.0428715
    endloop
  endfacet
  facet normal -0.279978 0.861692 -0.423201
    outer loop
      vertex 0.0494423 0.152168 0.0428715
      vertex -0.129442 0.0940456 0.0428715
      vertex 0.0988846 0.304338 0.32
    endloop
  endfacet
  facet normal 0.732996 0.532559 -0.423199
    outer loop
      vertex 0.16 0 0.0428715
      vertex 0.0494423 0.152168 0.0428715
      vertex 0.0988846 0.304338 0.32
    endloop
  endfacet
  facet normal -0.309018 -0.951056 0
    outer loop
      vertex -0.258885 -0.188091 0.32
      vertex 0.0988846 -0.304338 10
      vertex -0.258885 -0.188091 10
    endloop
  endfacet
  facet normal -0.309018 -0.951056 -0
    outer loop
      vertex 0.0988846 -0.304338 10
      vertex -0.258885 -0.188091 0.32
      vertex 0.0988846 -0.304338 0.32
    endloop
  endfacet
  facet normal -0.309018 0.951056 0
    outer loop
      vertex 0.0988846 0.304338 0.32
      vertex -0.258885 0.188091 10
      vertex 0.0988846 0.304338 10
    endloop
  endfacet
  facet normal -0.309018 0.951056 0
    outer loop
      vertex -0.258885 0.188091 10
      vertex 0.0988846 0.304338 0.32
      vertex -0.258885 0.188091 0.32
    endloop
  endfacet
  facet normal 0.809016 0.587787 0
    outer loop
      vertex 0.32 0 10
      vertex 0.0988846 0.304338 0.32
      vertex 0.0988846 0.304338 10
    endloop
  endfacet
  facet normal 0.809016 0.587787 0
    outer loop
      vertex 0.0988846 0.304338 0.32
      vertex 0.32 0 10
      vertex 0.32 0 0.32
    endloop
  endfacet
  facet normal -1 0 0
    outer loop
      vertex -0.258885 -0.188091 0.32
      vertex -0.258885 0.188091 10
      vertex -0.258885 0.188091 0.32
    endloop
  endfacet
  facet normal -1 -0 0
    outer loop
      vertex -0.258885 0.188091 10
      vertex -0.258885 -0.188091 0.32
      vertex -0.258885 -0.188091 10
    endloop
  endfacet
  facet normal 0.809016 -0.587787 0
    outer loop
      vertex 0.0988846 -0.304338 10
      vertex 0.32 0 0.32
      vertex 0.32 0 10
    endloop
  endfacet
  facet normal 0.809016 -0.587787 0
    outer loop
      vertex 0.32 0 0.32
      vertex 0.0988846 -0.304338 10
      vertex 0.0988846 -0.304338 0.32
    endloop
  endfacet
  facet normal 0 0 1
    outer loop
      vertex 0.0988846 0.304338 10
      vertex 0.0988846 -0.304338 10
      vertex 0.32 0 10
    endloop
  endfacet
  facet normal -0 0 1
    outer loop
      vertex -0.258885 0.188091 10
      vertex 0.0988846 -0.304338 10
      vertex 0.0988846 0.304338 10
    endloop
  endfacet
  facet normal 0 0 1
    outer loop
      vertex 0.0988846 -0.304338 10
      vertex -0.258885 0.188091 10
      vertex -0.258885 -0.188091 10
    endloop
  endfacet
endsolid OpenSCAD_Model
